<svg width="25" height="25" viewBox="0 0 25 25" fill="none" xmlns="http://www.w3.org/2000/svg">
<g clip-path="url(#clip0_1_80)">
<path d="M7.59998 23C8.63552 23 9.47498 22.1605 9.47498 21.125C9.47498 20.0895 8.63552 19.25 7.59998 19.25C6.56445 19.25 5.72498 20.0895 5.72498 21.125C5.72498 22.1605 6.56445 23 7.59998 23Z" fill="white" stroke="#111111" stroke-width="1.2"/>
<path d="M18.85 23C19.8855 23 20.725 22.1605 20.725 21.125C20.725 20.0895 19.8855 19.25 18.85 19.25C17.8145 19.25 16.975 20.0895 16.975 21.125C16.975 22.1605 17.8145 23 18.85 23Z" fill="white" stroke="#111111" stroke-width="1.2"/>
<path d="M4.59998 6.5H20.9514C21.0612 6.5 21.1698 6.52413 21.2693 6.57068C21.3688 6.61724 21.4569 6.68508 21.5272 6.76941C21.5976 6.85375 21.6486 6.95251 21.6766 7.05872C21.7047 7.16494 21.709 7.27602 21.6893 7.38409L20.1221 16.009C20.0907 16.182 19.9996 16.3382 19.8647 16.4508C19.7298 16.5633 19.5598 16.625 19.3841 16.625H7.07396C6.89838 16.625 6.72837 16.5634 6.59355 16.4509C6.45872 16.3384 6.36762 16.1823 6.33612 16.0095L4.03038 3.36546C3.9989 3.19273 3.90779 3.03652 3.77297 2.92406C3.63814 2.8116 3.46814 2.75 3.29255 2.75H1.97498" stroke="#111111" stroke-width="2.25" stroke-linecap="round" stroke-linejoin="round"/>
</g>
<defs>
<clipPath id="clip0_1_80">
<rect width="24" height="24" fill="white" transform="translate(0.849976 0.5)"/>
</clipPath>
</defs>
</svg>
