<svg width="25" height="25" viewBox="0 0 25 25" fill="none" xmlns="http://www.w3.org/2000/svg">
<g clip-path="url(#clip0_1_74)">
<path d="M22.2713 5.11183C21.7605 4.60083 21.1541 4.19547 20.4866 3.91891C19.8192 3.64235 19.1038 3.5 18.3813 3.5C17.6588 3.5 16.9434 3.64235 16.2759 3.91891C15.6085 4.19547 15.002 4.60083 14.4913 5.11183L13.4313 6.17183L12.3713 5.11183C11.3396 4.08013 9.9403 3.50053 8.48127 3.50053C7.02224 3.50053 5.62296 4.08013 4.59127 5.11183C3.55958 6.14352 2.97998 7.54279 2.97998 9.00183C2.97998 10.4609 3.55958 11.8601 4.59127 12.8918L5.65127 13.9518L13.4313 21.7318L21.2113 13.9518L22.2713 12.8918C22.7823 12.3811 23.1876 11.7746 23.4642 11.1072C23.7408 10.4397 23.8831 9.72431 23.8831 9.00183C23.8831 8.27934 23.7408 7.56393 23.4642 6.89647C23.1876 6.22901 22.7823 5.62258 22.2713 5.11183Z" fill="white" stroke="#111111" stroke-width="2" stroke-linecap="round" stroke-linejoin="round"/>
</g>
<defs>
<clipPath id="clip0_1_74">
<rect width="24" height="24" fill="white" transform="translate(0.97998 0.5)"/>
</clipPath>
</defs>
</svg>
