<svg width="103" height="31" viewBox="0 0 103 31" fill="none" xmlns="http://www.w3.org/2000/svg">
<g clip-path="url(#clip0_1_47)">
<path d="M0.5 19.3909V19.3103C0.5 13.1348 5.58749 8.12137 12.437 8.12137C19.2464 8.12137 24.2895 13.0547 24.2895 19.2302V19.3103C24.2895 25.4857 19.2043 30.5 12.3545 30.5C5.5471 30.5 0.5 25.5642 0.5 19.3909ZM27.0361 3.54948C27.0361 1.86637 28.4309 0.5 30.1531 0.5C31.8767 0.5 33.2693 1.86637 33.2693 3.54948V27.2111C33.2693 28.895 31.8767 30.2589 30.1531 30.2589C28.4309 30.2589 27.0361 28.895 27.0361 27.2111V3.54948ZM36.0172 19.3909V19.3103C36.0172 13.1743 40.8158 8.12137 47.5428 8.12137C50.8646 8.12137 53.2027 9.00448 55.0486 10.5269C55.4601 10.8472 56.0323 11.5713 56.0323 12.6129C56.0323 14.1361 54.7619 15.3407 53.2027 15.3407C52.382 15.3407 51.7675 15.0187 51.3981 14.7384C50.2904 13.8964 49.1427 13.3745 47.5029 13.3745C44.3845 13.3745 42.1686 16.0628 42.1686 19.2302V19.3103C42.1686 22.5994 44.3441 25.2466 47.7475 25.2466C49.3895 25.2466 50.6598 24.683 51.8499 23.7631C52.1787 23.5193 52.7932 23.1995 53.5314 23.1995C55.0068 23.1995 56.1571 24.3632 56.1571 25.8077C56.1571 26.6108 55.7871 27.2503 55.2536 27.733C53.4092 29.375 51.071 30.5 47.4609 30.5C40.8579 30.5 36.0172 25.5269 36.0172 19.3909ZM59.2722 3.54948C59.2722 1.86637 60.667 0.5 62.3889 0.5C64.1128 0.5 65.5051 1.86637 65.5051 3.54948V11.5696C66.9407 9.76609 68.7866 8.12164 71.9457 8.12164C76.6618 8.12164 79.4111 11.1697 79.4111 16.1006V27.2111C79.4111 28.895 78.0143 30.2589 76.2927 30.2589C74.5705 30.2589 73.1762 28.895 73.1762 27.2111V18.0259C73.1762 15.1391 71.7811 13.6551 69.4028 13.6551C67.0223 13.6551 65.5051 15.1391 65.5051 18.0259V27.2111C65.5051 28.895 64.1128 30.2589 62.3889 30.2589C60.667 30.2589 59.2722 28.895 59.2722 27.2111V3.54948ZM82.2808 23.8407V23.7623C82.2808 19.0689 85.9314 16.9045 91.1394 16.9045C93.3528 16.9045 94.9543 17.2657 96.511 17.7857V17.4261C96.511 14.8986 94.912 13.4957 91.7952 13.4957C90.0716 13.4957 88.6765 13.7349 87.4889 14.098C87.1189 14.2179 86.8727 14.2573 86.5854 14.2573C85.1507 14.2573 84.0024 13.1737 84.0024 11.7709C84.0024 10.6876 84.6989 9.76582 85.6828 9.40407C87.6507 8.68195 89.7841 8.28181 92.6984 8.28181C96.1021 8.28181 98.5625 9.16492 100.122 10.6876C101.761 12.2926 102.5 14.6594 102.5 17.5457V27.332C102.5 28.9768 101.147 30.26 99.4654 30.26C97.6593 30.26 96.4692 29.0157 96.4692 27.7325V27.6927C94.9543 29.3355 92.8608 30.4188 89.8248 30.4188C85.6828 30.4188 82.2808 28.0937 82.2808 23.8407ZM96.5935 22.4379V21.3549C95.5282 20.876 94.1334 20.554 92.6159 20.554C89.949 20.554 88.309 21.5962 88.309 23.521V23.6016C88.309 25.246 89.7039 26.2079 91.7133 26.2079C94.6248 26.2079 96.5935 24.6457 96.5935 22.4379ZM18.1382 19.3909V19.3103C18.1382 16.1434 15.8009 13.3745 12.3545 13.3745C8.78644 13.3745 6.65305 16.0628 6.65305 19.2302V19.3103C6.65305 22.4777 8.9912 25.2466 12.437 25.2466C16.0073 25.2466 18.1382 22.5583 18.1382 19.3909Z" fill="#DA002B"/>
</g>
<defs>
<clipPath id="clip0_1_47">
<rect width="102" height="30" fill="white" transform="translate(0.5 0.5)"/>
</clipPath>
</defs>
</svg>
