<svg width="25" height="25" viewBox="0 0 25 25" fill="none" xmlns="http://www.w3.org/2000/svg">
<path d="M22.1 20.79L18.39 17.11C19.8301 15.3144 20.5275 13.0353 20.3388 10.7413C20.1501 8.44733 19.0897 6.31281 17.3755 4.77667C15.6614 3.24053 13.4238 2.41954 11.1229 2.4825C8.82201 2.54546 6.6327 3.48759 5.00512 5.11517C3.37754 6.74275 2.43541 8.93207 2.37245 11.2329C2.30949 13.5338 3.13048 15.7714 4.66662 17.4855C6.20276 19.1997 8.33728 20.2601 10.6313 20.4488C12.9253 20.6375 15.2044 19.9401 17 18.5L20.68 22.18C20.773 22.2738 20.8836 22.3482 21.0054 22.3989C21.1273 22.4497 21.258 22.4758 21.39 22.4758C21.522 22.4758 21.6527 22.4497 21.7746 22.3989C21.8964 22.3482 22.007 22.2738 22.1 22.18C22.2802 21.9936 22.381 21.7444 22.381 21.485C22.381 21.2257 22.2802 20.9765 22.1 20.79ZM11.39 18.5C10.0055 18.5 8.65213 18.0895 7.50098 17.3203C6.34984 16.5511 5.45263 15.4579 4.92282 14.1788C4.39301 12.8997 4.25438 11.4923 4.52448 10.1344C4.79458 8.77653 5.46126 7.52925 6.44023 6.55028C7.4192 5.57131 8.66648 4.90463 10.0243 4.63453C11.3822 4.36443 12.7897 4.50306 14.0688 5.03287C15.3479 5.56268 16.4411 6.45989 17.2103 7.61103C17.9795 8.76218 18.39 10.1156 18.39 11.5C18.39 13.3565 17.6525 15.137 16.3397 16.4498C15.027 17.7625 13.2465 18.5 11.39 18.5Z" fill="white"/>
</svg>
