<svg width="25" height="25" viewBox="0 0 25 25" fill="none" xmlns="http://www.w3.org/2000/svg">
<g clip-path="url(#clip0_1_66)">
<path d="M6.69 16.75C6.69 16.0596 6.13036 15.5 5.44 15.5C4.74965 15.5 4.19 16.0596 4.19 16.75V21.25C4.19 21.9404 4.74965 22.5 5.44 22.5C6.13036 22.5 6.69 21.9404 6.69 21.25V16.75Z" fill="#111111"/>
<path d="M11.69 4.75C11.69 4.05964 11.1304 3.5 10.44 3.5C9.74965 3.5 9.19 4.05964 9.19 4.75V21.25C9.19 21.9404 9.74965 22.5 10.44 22.5C11.1304 22.5 11.69 21.9404 11.69 21.25V4.75Z" fill="#111111"/>
<path d="M16.69 12.75C16.69 12.0596 16.1304 11.5 15.44 11.5C14.7496 11.5 14.19 12.0596 14.19 12.75V21.25C14.19 21.9404 14.7496 22.5 15.44 22.5C16.1304 22.5 16.69 21.9404 16.69 21.25V12.75Z" fill="#111111"/>
<path d="M21.69 8.75C21.69 8.05964 21.1304 7.5 20.44 7.5C19.7496 7.5 19.19 8.05964 19.19 8.75V21.25C19.19 21.9404 19.7496 22.5 20.44 22.5C21.1304 22.5 21.69 21.9404 21.69 21.25V8.75Z" fill="#111111"/>
</g>
<defs>
<clipPath id="clip0_1_66">
<rect width="24" height="24" fill="white" transform="translate(0.940002 0.5)"/>
</clipPath>
</defs>
</svg>
