<svg width="25" height="25" viewBox="0 0 25 25" fill="none" xmlns="http://www.w3.org/2000/svg">
<g clip-path="url(#clip0_1_89)">
<path d="M16.19 13.21C17.1704 12.4387 17.886 11.3809 18.2372 10.1839C18.5885 8.98697 18.5579 7.71027 18.1498 6.53147C17.7417 5.35267 16.9763 4.33039 15.9601 3.60686C14.9439 2.88332 13.7274 2.49451 12.48 2.49451C11.2325 2.49451 10.0161 2.88332 8.99991 3.60686C7.98372 4.33039 7.21832 5.35267 6.81019 6.53147C6.40206 7.71027 6.37149 8.98697 6.72274 10.1839C7.07399 11.3809 7.78958 12.4387 8.76998 13.21C7.09005 13.883 5.62426 14.9994 4.52887 16.4399C3.43347 17.8805 2.74954 19.5913 2.54998 21.39C2.53553 21.5213 2.54709 21.6542 2.584 21.7811C2.62091 21.9079 2.68244 22.0263 2.76509 22.1293C2.932 22.3375 3.17476 22.4708 3.43998 22.5C3.70519 22.5292 3.97114 22.4518 4.1793 22.2849C4.38747 22.118 4.5208 21.8752 4.54998 21.61C4.76956 19.6552 5.70166 17.8498 7.1682 16.5388C8.63473 15.2278 10.5329 14.503 12.5 14.503C14.4671 14.503 16.3652 15.2278 17.8318 16.5388C19.2983 17.8498 20.2304 19.6552 20.45 21.61C20.4772 21.8557 20.5944 22.0827 20.7791 22.247C20.9638 22.4114 21.2028 22.5015 21.45 22.5H21.56C21.8221 22.4698 22.0617 22.3373 22.2266 22.1313C22.3914 21.9252 22.4681 21.6624 22.44 21.4C22.2395 19.5962 21.5519 17.881 20.4508 16.4382C19.3498 14.9954 17.8769 13.8795 16.19 13.21ZM12.48 12.5C11.6889 12.5 10.9155 12.2654 10.2577 11.8259C9.5999 11.3864 9.08721 10.7616 8.78446 10.0307C8.48171 9.29983 8.40249 8.49557 8.55684 7.71964C8.71118 6.94372 9.09214 6.23099 9.65155 5.67158C10.211 5.11217 10.9237 4.7312 11.6996 4.57686C12.4756 4.42252 13.2798 4.50173 14.0107 4.80448C14.7416 5.10724 15.3663 5.61993 15.8059 6.27772C16.2454 6.93552 16.48 7.70888 16.48 8.5C16.48 9.56087 16.0586 10.5783 15.3084 11.3284C14.5583 12.0786 13.5409 12.5 12.48 12.5Z" fill="#111111"/>
</g>
<defs>
<clipPath id="clip0_1_89">
<rect width="24" height="24" fill="white" transform="translate(0.47998 0.5)"/>
</clipPath>
</defs>
</svg>
